<svg width="64" height="64" viewBox="0 0 64 64" fill="none" xmlns="http://www.w3.org/2000/svg">
<rect width="64" height="64" rx="15" fill="#F27006"/>
<path d="M35.1305 44.381C33.2137 46.4908 29.8409 46.511 27.8988 44.4243C27.0313 43.4922 27.7051 41.9991 28.9966 41.9914L34.0032 41.9614C35.2948 41.9537 35.9866 43.4386 35.1305 44.381Z" fill="white"/>
<path fill-rule="evenodd" clip-rule="evenodd" d="M39.8458 41.789C38.835 42.5744 37.4074 42.3149 36.5517 41.367L33.8329 38.3552C32.7372 37.1414 30.8138 37.1414 29.7181 38.3552L26.7756 41.6148C25.9414 42.5389 24.5604 42.813 23.5474 42.0833C20.1847 39.6608 18 35.7417 18 31.3192C18 23.9632 24.0442 18 31.5 18C38.9558 18 45 23.9632 45 31.3192C45 35.5669 42.9846 39.3502 39.8458 41.789ZM29.976 35.7904C30.7864 36.7366 32.2135 36.7366 33.024 35.7904L35.5756 32.8113C36.3947 31.855 35.9723 30.3415 34.7868 29.9847C32.64 29.3385 30.3599 29.3385 28.2131 29.9847C27.0276 30.3415 26.6053 31.855 27.4243 32.8113L29.976 35.7904ZM27.5 26.5001C27.5 27.6046 26.6046 28.5001 25.5 28.5001C24.3954 28.5001 23.5 27.6046 23.5 26.5001C23.5 25.3955 24.3954 24.5001 25.5 24.5001C26.6046 24.5001 27.5 25.3955 27.5 26.5001ZM37.5 28.5001C38.6046 28.5001 39.5 27.6046 39.5 26.5001C39.5 25.3955 38.6046 24.5001 37.5 24.5001C36.3954 24.5001 35.5 25.3955 35.5 26.5001C35.5 27.6046 36.3954 28.5001 37.5 28.5001Z" fill="white"/>
</svg>
